ffmpeg started on 2025-05-12 at 18:02:54
Report written to "D:\Convert\FFMetrics\reports\psnr_report-6.txt"
Log level: 32
Command line:
ffmpeg -hide_banner -nostdin -i "G:\\\xc0\xed\xe8\xec\xe5\\\xce\xed\xe3\xee\xe8\xed\xe3\xe8\\!_35_\xcb\xe5\xf2\xee_2024\\DreamCast\\\xce\xef\xe5\xf0\xe0\xf6\xe8\xff - \xd1\xe5\xec\xe5\xe9\xea\xe0 \xa8\xe4\xe7\xe0\xea\xf3\xf0\xe0\\[DC] Yozakura-san Chi no Daisakusen - 27_Telegram_HEVC.mkv" -i "G:\\\xc0\xed\xe8\xec\xe5\\\xce\xed\xe3\xee\xe8\xed\xe3\xe8\\!_35_\xcb\xe5\xf2\xee_2024\\DreamCast\\\xce\xef\xe5\xf0\xe0\xf6\xe8\xff - \xd1\xe5\xec\xe5\xe9\xea\xe0 \xa8\xe4\xe7\xe0\xea\xf3\xf0\xe0\\[DC] Yozakura-san Chi no Daisakusen - 27_Telegram.mp4" -lavfi "[0:v]settb=AVTB,setpts=PTS-STARTPTS,format=pix_fmts=yuv420p10,fps=24000/1001,scale=1920:1080:flags=bicubic[main];[1:v]settb=AVTB,setpts=PTS-STARTPTS,format=pix_fmts=yuv420p,fps=24000/1001,scale=1920:1080:flags=bicubic[ref];[main][ref]psnr=eof_action=endall:stats_file='D\\:/Convert/FFMetrics/logs/psnr_logfile-6.txt'" -f null -
Input #0, matroska,webm, from 'G:\Аниме\Онгоинги\!_35_Лето_2024\DreamCast\Операция - Семейка Ёдзакура\[DC] Yozakura-san Chi no Daisakusen - 27_Telegram_HEVC.mkv':
  Metadata:
    COMPATIBLE_BRANDS: isomiso2avc1mp41
    MAJOR_BRAND     : isom
    MINOR_VERSION   : 512
    ENCODER         : Lavf61.7.100
  Duration: 00:24:09.64, start: -0.021000, bitrate: 1589 kb/s
  Stream #0:0: Video: hevc (Main 10), yuv420p10le(tv, bt709, progressive), 1920x1080 [SAR 1:1 DAR 16:9], 23.98 fps, 23.98 tbr, 1k tbn (default)
      Metadata:
        HANDLER_NAME    : VideoHandler
        VENDOR_ID       : [0][0][0][0]
        ENCODER         : Lavc61.19.100 libx265
        BPS             : 1390945
        DURATION        : 00:24:09.531708333
        NUMBER_OF_FRAMES: 34754
        NUMBER_OF_BYTES : 252027294
        _STATISTICS_WRITING_APP: mkvpropedit v66.0.0 ('Josie') 64-bit
        _STATISTICS_WRITING_DATE_UTC: 2025-05-08 18:24:43
        _STATISTICS_TAGS: BPS DURATION NUMBER_OF_FRAMES NUMBER_OF_BYTES
  Stream #0:1: Audio: aac (LC), 48000 Hz, stereo, fltp (default)
      Metadata:
        HANDLER_NAME    : SoundHandler
        VENDOR_ID       : [0][0][0][0]
        ENCODER         : Lavc61.19.100 aac
        BPS             : 194084
        DURATION        : 00:24:09.642000000
        NUMBER_OF_FRAMES: 67953
        NUMBER_OF_BYTES : 35169057
        _STATISTICS_WRITING_APP: mkvpropedit v66.0.0 ('Josie') 64-bit
        _STATISTICS_WRITING_DATE_UTC: 2025-05-08 18:24:43
        _STATISTICS_TAGS: BPS DURATION NUMBER_OF_FRAMES NUMBER_OF_BYTES
Input #1, mov,mp4,m4a,3gp,3g2,mj2, from 'G:\Аниме\Онгоинги\!_35_Лето_2024\DreamCast\Операция - Семейка Ёдзакура\[DC] Yozakura-san Chi no Daisakusen - 27_Telegram.mp4':
  Metadata:
    major_brand     : isom
    minor_version   : 512
    compatible_brands: isomiso2avc1mp41
    encoder         : Lavf61.1.100
  Duration: 00:24:09.60, start: 0.000000, bitrate: 3787 kb/s
  Stream #1:0[0x1](und): Video: h264 (High) (avc1 / 0x31637661), yuv420p(tv, bt709, progressive), 1920x1080 [SAR 1:1 DAR 16:9], 3639 kb/s, 23.98 fps, 23.98 tbr, 24k tbn (default)
      Metadata:
        handler_name    : VideoHandler
        vendor_id       : [0][0][0][0]
        encoder         : Lavc61.3.100 h264_qsv
  Stream #1:1[0x2](und): Audio: aac (HE-AACv2) (mp4a / 0x6134706D), 48000 Hz, stereo, fltp, 144 kb/s (default)
      Metadata:
        handler_name    : SoundHandler
        vendor_id       : [0][0][0][0]
Stream mapping:
  Stream #0:0 (hevc) -> settb:default
  Stream #1:0 (h264) -> settb:default
  psnr:default -> Stream #0:0 (wrapped_avframe)
  Stream #0:1 -> #0:1 (aac (native) -> pcm_s16le (native))
Output #0, null, to 'pipe:':
  Metadata:
    COMPATIBLE_BRANDS: isomiso2avc1mp41
    MAJOR_BRAND     : isom
    MINOR_VERSION   : 512
    encoder         : Lavf61.7.100
  Stream #0:0: Video: wrapped_avframe, yuv420p10le(tv, bt709, progressive), 1920x1080 [SAR 1:1 DAR 16:9], q=2-31, 200 kb/s, 23.98 fps, 23.98 tbn
      Metadata:
        encoder         : Lavc61.19.100 wrapped_avframe
  Stream #0:1: Audio: pcm_s16le, 48000 Hz, stereo, s16, 1536 kb/s (default)
      Metadata:
        HANDLER_NAME    : SoundHandler
        VENDOR_ID       : [0][0][0][0]
        _STATISTICS_TAGS: BPS DURATION NUMBER_OF_FRAMES NUMBER_OF_BYTES
        BPS             : 194084
        DURATION        : 00:24:09.642000000
        NUMBER_OF_FRAMES: 67953
        NUMBER_OF_BYTES : 35169057
        _STATISTICS_WRITING_APP: mkvpropedit v66.0.0 ('Josie') 64-bit
        _STATISTICS_WRITING_DATE_UTC: 2025-05-08 18:24:43
        encoder         : Lavc61.19.100 pcm_s16le
frame=  175 fps=0.0 q=-0.0 size=N/A time=00:00:07.29 bitrate=N/A speed=14.1x    frame=  451 fps=434 q=-0.0 size=N/A time=00:00:18.81 bitrate=N/A speed=18.1x    frame=  711 fps=456 q=-0.0 size=N/A time=00:00:29.65 bitrate=N/A speed=  19x    frame=  963 fps=464 q=-0.0 size=N/A time=00:00:40.16 bitrate=N/A speed=19.4x    frame= 1206 fps=467 q=-0.0 size=N/A time=00:00:50.30 bitrate=N/A speed=19.5x    frame= 1425 fps=459 q=-0.0 size=N/A time=00:00:59.43 bitrate=N/A speed=19.2x    frame= 1643 fps=455 q=-0.0 size=N/A time=00:01:08.52 bitrate=N/A speed=  19x    frame= 1871 fps=453 q=-0.0 size=N/A time=00:01:18.03 bitrate=N/A speed=18.9x    frame= 2101 fps=453 q=-0.0 size=N/A time=00:01:27.62 bitrate=N/A speed=18.9x    frame= 2281 fps=442 q=-0.0 size=N/A time=00:01:35.13 bitrate=N/A speed=18.4x    frame= 2413 fps=426 q=-0.0 size=N/A time=00:01:40.64 bitrate=N/A speed=17.7x    frame= 2574 fps=415 q=-0.0 size=N/A time=00:01:47.35 bitrate=N/A speed=17.3x    frame= 2801 fps=418 q=-0.0 size=N/A time=00:01:56.82 bitrate=N/A speed=17.4x    frame= 3062 fps=423 q=-0.0 size=N/A time=00:02:07.71 bitrate=N/A speed=17.7x    frame= 3281 fps=424 q=-0.0 size=N/A time=00:02:16.84 bitrate=N/A speed=17.7x    frame= 3500 fps=424 q=-0.0 size=N/A time=00:02:25.97 bitrate=N/A speed=17.7x    frame= 3727 fps=425 q=-0.0 size=N/A time=00:02:35.44 bitrate=N/A speed=17.7x    frame= 3943 fps=425 q=-0.0 size=N/A time=00:02:44.45 bitrate=N/A speed=17.7x    frame= 4187 fps=427 q=-0.0 size=N/A time=00:02:54.63 bitrate=N/A speed=17.8x    frame= 4394 fps=426 q=-0.0 size=N/A time=00:03:03.26 bitrate=N/A speed=17.8x    frame= 4604 fps=425 q=-0.0 size=N/A time=00:03:12.02 bitrate=N/A speed=17.7x    frame= 4798 fps=423 q=-0.0 size=N/A time=00:03:20.11 bitrate=N/A speed=17.6x    frame= 4996 fps=421 q=-0.0 size=N/A time=00:03:28.37 bitrate=N/A speed=17.6x    frame= 5199 fps=420 q=-0.0 size=N/A time=00:03:36.84 bitrate=N/A speed=17.5x    frame= 5408 fps=420 q=-0.0 size=N/A time=00:03:45.55 bitrate=N/A speed=17.5x    frame= 5613 fps=418 q=-0.0 size=N/A time=00:03:54.10 bitrate=N/A speed=17.5x    frame= 5829 fps=419 q=-0.0 size=N/A time=00:04:03.11 bitrate=N/A speed=17.5x    frame= 6070 fps=420 q=-0.0 size=N/A time=00:04:13.16 bitrate=N/A speed=17.5x    frame= 6276 fps=419 q=-0.0 size=N/A time=00:04:21.76 bitrate=N/A speed=17.5x    frame= 6452 fps=417 q=-0.0 size=N/A time=00:04:29.10 bitrate=N/A speed=17.4x    frame= 6636 fps=415 q=-0.0 size=N/A time=00:04:36.77 bitrate=N/A speed=17.3x    frame= 6852 fps=415 q=-0.0 size=N/A time=00:04:45.78 bitrate=N/A speed=17.3x    frame= 7093 fps=417 q=-0.0 size=N/A time=00:04:55.83 bitrate=N/A speed=17.4x    frame= 7312 fps=417 q=-0.0 size=N/A time=00:05:04.97 bitrate=N/A speed=17.4x    frame= 7528 fps=417 q=-0.0 size=N/A time=00:05:13.98 bitrate=N/A speed=17.4x    frame= 7749 fps=417 q=-0.0 size=N/A time=00:05:23.19 bitrate=N/A speed=17.4x    frame= 7978 fps=418 q=-0.0 size=N/A time=00:05:32.74 bitrate=N/A speed=17.4x    frame= 8179 fps=417 q=-0.0 size=N/A time=00:05:41.13 bitrate=N/A speed=17.4x    frame= 8361 fps=416 q=-0.0 size=N/A time=00:05:48.72 bitrate=N/A speed=17.3x    frame= 8572 fps=416 q=-0.0 size=N/A time=00:05:57.52 bitrate=N/A speed=17.3x    frame= 8812 fps=417 q=-0.0 size=N/A time=00:06:07.53 bitrate=N/A speed=17.4x    frame= 9028 fps=417 q=-0.0 size=N/A time=00:06:16.54 bitrate=N/A speed=17.4x    frame= 9267 fps=418 q=-0.0 size=N/A time=00:06:26.51 bitrate=N/A speed=17.4x    frame= 9448 fps=416 q=-0.0 size=N/A time=00:06:34.06 bitrate=N/A speed=17.4x    frame= 9685 fps=417 q=-0.0 size=N/A time=00:06:43.94 bitrate=N/A speed=17.4x    frame= 9908 fps=418 q=-0.0 size=N/A time=00:06:53.24 bitrate=N/A speed=17.4x    frame=10147 fps=419 q=-0.0 size=N/A time=00:07:03.21 bitrate=N/A speed=17.5x    frame=10342 fps=418 q=-0.0 size=N/A time=00:07:11.34 bitrate=N/A speed=17.4x    frame=10589 fps=419 q=-0.0 size=N/A time=00:07:21.64 bitrate=N/A speed=17.5x    frame=10807 fps=419 q=-0.0 size=N/A time=00:07:30.74 bitrate=N/A speed=17.5x    frame=11071 fps=421 q=-0.0 size=N/A time=00:07:41.75 bitrate=N/A speed=17.6x    frame=11324 fps=422 q=-0.0 size=N/A time=00:07:52.30 bitrate=N/A speed=17.6x    frame=11573 fps=423 q=-0.0 size=N/A time=00:08:02.69 bitrate=N/A speed=17.7x    frame=11799 fps=424 q=-0.0 size=N/A time=00:08:12.11 bitrate=N/A speed=17.7x    frame=12015 fps=424 q=-0.0 size=N/A time=00:08:21.12 bitrate=N/A speed=17.7x    frame=12275 fps=425 q=-0.0 size=N/A time=00:08:31.96 bitrate=N/A speed=17.7x    frame=12522 fps=426 q=-0.0 size=N/A time=00:08:42.27 bitrate=N/A speed=17.8x    frame=12772 fps=427 q=-0.0 size=N/A time=00:08:52.69 bitrate=N/A speed=17.8x    frame=13021 fps=428 q=-0.0 size=N/A time=00:09:03.08 bitrate=N/A speed=17.9x    frame=13274 fps=429 q=-0.0 size=N/A time=00:09:13.63 bitrate=N/A speed=17.9x    frame=13533 fps=430 q=-0.0 size=N/A time=00:09:24.43 bitrate=N/A speed=17.9x    frame=13774 fps=431 q=-0.0 size=N/A time=00:09:34.49 bitrate=N/A speed=  18x    frame=14010 fps=431 q=-0.0 size=N/A time=00:09:44.33 bitrate=N/A speed=  18x    frame=14232 fps=431 q=-0.0 size=N/A time=00:09:53.59 bitrate=N/A speed=  18x    frame=14389 fps=429 q=-0.0 size=N/A time=00:10:00.14 bitrate=N/A speed=17.9x    frame=14591 fps=429 q=-0.0 size=N/A time=00:10:08.56 bitrate=N/A speed=17.9x    frame=14844 fps=430 q=-0.0 size=N/A time=00:10:19.11 bitrate=N/A speed=17.9x    frame=15082 fps=430 q=-0.0 size=N/A time=00:10:29.04 bitrate=N/A speed=17.9x    frame=15283 fps=429 q=-0.0 size=N/A time=00:10:37.42 bitrate=N/A speed=17.9x    frame=15506 fps=429 q=-0.0 size=N/A time=00:10:46.72 bitrate=N/A speed=17.9x    frame=15751 fps=430 q=-0.0 size=N/A time=00:10:56.94 bitrate=N/A speed=17.9x    frame=16000 fps=431 q=-0.0 size=N/A time=00:11:07.33 bitrate=N/A speed=  18x    frame=16219 fps=431 q=-0.0 size=N/A time=00:11:16.46 bitrate=N/A speed=  18x    frame=16478 fps=432 q=-0.0 size=N/A time=00:11:27.26 bitrate=N/A speed=  18x    frame=16731 fps=433 q=-0.0 size=N/A time=00:11:37.82 bitrate=N/A speed=  18x    frame=16979 fps=433 q=-0.0 size=N/A time=00:11:48.16 bitrate=N/A speed=18.1x    frame=17227 fps=434 q=-0.0 size=N/A time=00:11:58.50 bitrate=N/A speed=18.1x    frame=17493 fps=435 q=-0.0 size=N/A time=00:12:09.60 bitrate=N/A speed=18.1x    frame=17771 fps=436 q=-0.0 size=N/A time=00:12:21.19 bitrate=N/A speed=18.2x    frame=17978 fps=436 q=-0.0 size=N/A time=00:12:29.83 bitrate=N/A speed=18.2x    frame=18224 fps=436 q=-0.0 size=N/A time=00:12:40.09 bitrate=N/A speed=18.2x    frame=18474 fps=437 q=-0.0 size=N/A time=00:12:50.51 bitrate=N/A speed=18.2x    frame=18720 fps=437 q=-0.0 size=N/A time=00:13:00.78 bitrate=N/A speed=18.2x    frame=18960 fps=438 q=-0.0 size=N/A time=00:13:10.79 bitrate=N/A speed=18.3x    frame=19154 fps=437 q=-0.0 size=N/A time=00:13:18.88 bitrate=N/A speed=18.2x    frame=19414 fps=438 q=-0.0 size=N/A time=00:13:29.72 bitrate=N/A speed=18.3x    frame=19639 fps=438 q=-0.0 size=N/A time=00:13:39.10 bitrate=N/A speed=18.3x    frame=19904 fps=438 q=-0.0 size=N/A time=00:13:50.16 bitrate=N/A speed=18.3x    frame=20136 fps=439 q=-0.0 size=N/A time=00:13:59.83 bitrate=N/A speed=18.3x    frame=20361 fps=439 q=-0.0 size=N/A time=00:14:09.22 bitrate=N/A speed=18.3x    frame=20594 fps=439 q=-0.0 size=N/A time=00:14:18.94 bitrate=N/A speed=18.3x    frame=20802 fps=438 q=-0.0 size=N/A time=00:14:27.61 bitrate=N/A speed=18.3x    frame=20995 fps=438 q=-0.0 size=N/A time=00:14:35.66 bitrate=N/A speed=18.3x    frame=21179 fps=437 q=-0.0 size=N/A time=00:14:43.34 bitrate=N/A speed=18.2x    frame=21400 fps=437 q=-0.0 size=N/A time=00:14:52.55 bitrate=N/A speed=18.2x    frame=21667 fps=438 q=-0.0 size=N/A time=00:15:03.69 bitrate=N/A speed=18.3x    frame=21863 fps=437 q=-0.0 size=N/A time=00:15:11.86 bitrate=N/A speed=18.2x    frame=22102 fps=437 q=-0.0 size=N/A time=00:15:21.83 bitrate=N/A speed=18.2x    frame=22346 fps=438 q=-0.0 size=N/A time=00:15:32.01 bitrate=N/A speed=18.3x    frame=22589 fps=438 q=-0.0 size=N/A time=00:15:42.14 bitrate=N/A speed=18.3x    frame=22798 fps=438 q=-0.0 size=N/A time=00:15:50.86 bitrate=N/A speed=18.3x    frame=23069 fps=438 q=-0.0 size=N/A time=00:16:02.16 bitrate=N/A speed=18.3x    frame=23280 fps=438 q=-0.0 size=N/A time=00:16:10.97 bitrate=N/A speed=18.3x    frame=23549 fps=439 q=-0.0 size=N/A time=00:16:22.18 bitrate=N/A speed=18.3x    frame=23806 fps=439 q=-0.0 size=N/A time=00:16:32.90 bitrate=N/A speed=18.3x    frame=24068 fps=440 q=-0.0 size=N/A time=00:16:43.83 bitrate=N/A speed=18.4x    frame=24333 fps=441 q=-0.0 size=N/A time=00:16:54.88 bitrate=N/A speed=18.4x    frame=24588 fps=441 q=-0.0 size=N/A time=00:17:05.52 bitrate=N/A speed=18.4x    frame=24864 fps=442 q=-0.0 size=N/A time=00:17:17.03 bitrate=N/A speed=18.4x    frame=25058 fps=442 q=-0.0 size=N/A time=00:17:25.12 bitrate=N/A speed=18.4x    frame=25271 fps=441 q=-0.0 size=N/A time=00:17:34.01 bitrate=N/A speed=18.4x    frame=25512 fps=442 q=-0.0 size=N/A time=00:17:44.06 bitrate=N/A speed=18.4x    frame=25804 fps=443 q=-0.0 size=N/A time=00:17:56.24 bitrate=N/A speed=18.5x    frame=26014 fps=442 q=-0.0 size=N/A time=00:18:05.00 bitrate=N/A speed=18.4x    frame=26240 fps=442 q=-0.0 size=N/A time=00:18:14.42 bitrate=N/A speed=18.4x    frame=26496 fps=443 q=-0.0 size=N/A time=00:18:25.10 bitrate=N/A speed=18.5x    frame=26712 fps=443 q=-0.0 size=N/A time=00:18:34.11 bitrate=N/A speed=18.5x    frame=26908 fps=442 q=-0.0 size=N/A time=00:18:42.28 bitrate=N/A speed=18.4x    frame=27164 fps=442 q=-0.0 size=N/A time=00:18:52.96 bitrate=N/A speed=18.5x    frame=27391 fps=442 q=-0.0 size=N/A time=00:19:02.43 bitrate=N/A speed=18.5x    frame=27627 fps=443 q=-0.0 size=N/A time=00:19:12.27 bitrate=N/A speed=18.5x    frame=27758 fps=441 q=-0.0 size=N/A time=00:19:17.73 bitrate=N/A speed=18.4x    frame=27949 fps=440 q=-0.0 size=N/A time=00:19:25.70 bitrate=N/A speed=18.4x    frame=28176 fps=440 q=-0.0 size=N/A time=00:19:35.17 bitrate=N/A speed=18.4x    frame=28417 fps=441 q=-0.0 size=N/A time=00:19:45.22 bitrate=N/A speed=18.4x    frame=28675 fps=441 q=-0.0 size=N/A time=00:19:55.98 bitrate=N/A speed=18.4x    frame=28859 fps=440 q=-0.0 size=N/A time=00:20:03.66 bitrate=N/A speed=18.4x    frame=29094 fps=441 q=-0.0 size=N/A time=00:20:13.46 bitrate=N/A speed=18.4x    frame=29366 fps=441 q=-0.0 size=N/A time=00:20:24.80 bitrate=N/A speed=18.4x    frame=29611 fps=442 q=-0.0 size=N/A time=00:20:35.02 bitrate=N/A speed=18.4x    frame=29833 fps=441 q=-0.0 size=N/A time=00:20:44.28 bitrate=N/A speed=18.4x    frame=30043 fps=441 q=-0.0 size=N/A time=00:20:53.04 bitrate=N/A speed=18.4x    frame=30252 fps=441 q=-0.0 size=N/A time=00:21:01.76 bitrate=N/A speed=18.4x    frame=30457 fps=441 q=-0.0 size=N/A time=00:21:10.31 bitrate=N/A speed=18.4x    frame=30699 fps=441 q=-0.0 size=N/A time=00:21:20.40 bitrate=N/A speed=18.4x    frame=30946 fps=441 q=-0.0 size=N/A time=00:21:30.70 bitrate=N/A speed=18.4x    frame=31193 fps=441 q=-0.0 size=N/A time=00:21:41.00 bitrate=N/A speed=18.4x    frame=31415 fps=441 q=-0.0 size=N/A time=00:21:50.26 bitrate=N/A speed=18.4x    frame=31633 fps=441 q=-0.0 size=N/A time=00:21:59.35 bitrate=N/A speed=18.4x    frame=31837 fps=441 q=-0.0 size=N/A time=00:22:07.86 bitrate=N/A speed=18.4x    frame=32047 fps=441 q=-0.0 size=N/A time=00:22:16.62 bitrate=N/A speed=18.4x    frame=32234 fps=440 q=-0.0 size=N/A time=00:22:24.42 bitrate=N/A speed=18.3x    frame=32424 fps=439 q=-0.0 size=N/A time=00:22:32.35 bitrate=N/A speed=18.3x    frame=32615 fps=439 q=-0.0 size=N/A time=00:22:40.31 bitrate=N/A speed=18.3x    frame=32788 fps=438 q=-0.0 size=N/A time=00:22:47.53 bitrate=N/A speed=18.3x    frame=32964 fps=438 q=-0.0 size=N/A time=00:22:54.87 bitrate=N/A speed=18.2x    frame=33139 fps=437 q=-0.0 size=N/A time=00:23:02.17 bitrate=N/A speed=18.2x    frame=33300 fps=436 q=-0.0 size=N/A time=00:23:08.88 bitrate=N/A speed=18.2x    frame=33469 fps=435 q=-0.0 size=N/A time=00:23:15.93 bitrate=N/A speed=18.2x    frame=33645 fps=435 q=-0.0 size=N/A time=00:23:23.27 bitrate=N/A speed=18.1x    frame=33817 fps=434 q=-0.0 size=N/A time=00:23:30.45 bitrate=N/A speed=18.1x    frame=33993 fps=433 q=-0.0 size=N/A time=00:23:37.79 bitrate=N/A speed=18.1x    frame=34152 fps=432 q=-0.0 size=N/A time=00:23:44.42 bitrate=N/A speed=  18x    frame=34331 fps=432 q=-0.0 size=N/A time=00:23:51.88 bitrate=N/A speed=  18x    frame=34512 fps=431 q=-0.0 size=N/A time=00:23:59.43 bitrate=N/A speed=  18x    [Parsed_psnr_10 @ 000002cea4a39280] PSNR y:47.821455 u:50.450534 v:49.958115 average:48.478755 min:41.686600 max:inf
[out#0/null @ 000002ce97da67c0] video:14933KiB audio:271812KiB subtitle:0KiB other streams:0KiB global headers:0KiB muxing overhead: unknown
frame=34754 fps=432 q=-0.0 Lsize=N/A time=00:24:09.53 bitrate=N/A speed=  18x    
